<svg width="52" height="52" viewBox="0 0 52 52" fill="none" xmlns="http://www.w3.org/2000/svg">
<path d="M18.1997 36.8334L25.9997 29.0334L33.7997 36.8334L36.833 33.8L29.033 26L36.833 18.2L33.7997 15.1667L25.9997 22.9667L18.1997 15.1667L15.1663 18.2L22.9663 26L15.1663 33.8L18.1997 36.8334ZM25.9997 47.6667C23.0025 47.6667 20.1858 47.098 17.5497 45.9605C14.9136 44.823 12.6205 43.2792 10.6705 41.3292C8.72051 39.3792 7.17676 37.0862 6.03926 34.45C4.90176 31.8139 4.33301 28.9973 4.33301 26C4.33301 23.0028 4.90176 20.1862 6.03926 17.55C7.17676 14.9139 8.72051 12.6209 10.6705 10.6709C12.6205 8.72087 14.9136 7.17712 17.5497 6.03962C20.1858 4.90212 23.0025 4.33337 25.9997 4.33337C28.9969 4.33337 31.8136 4.90212 34.4497 6.03962C37.0858 7.17712 39.3788 8.72087 41.3288 10.6709C43.2788 12.6209 44.8226 14.9139 45.9601 17.55C47.0976 20.1862 47.6663 23.0028 47.6663 26C47.6663 28.9973 47.0976 31.8139 45.9601 34.45C44.8226 37.0862 43.2788 39.3792 41.3288 41.3292C39.3788 43.2792 37.0858 44.823 34.4497 45.9605C31.8136 47.098 28.9969 47.6667 25.9997 47.6667ZM25.9997 43.3334C30.8386 43.3334 34.9372 41.6542 38.2955 38.2959C41.6538 34.9375 43.333 30.8389 43.333 26C43.333 21.1612 41.6538 17.0625 38.2955 13.7042C34.9372 10.3459 30.8386 8.66671 25.9997 8.66671C21.1608 8.66671 17.0622 10.3459 13.7038 13.7042C10.3455 17.0625 8.66634 21.1612 8.66634 26C8.66634 30.8389 10.3455 34.9375 13.7038 38.2959C17.0622 41.6542 21.1608 43.3334 25.9997 43.3334Z" fill="white"/>
</svg>
