<svg width="20" height="20" viewBox="0 0 20 20" fill="none" xmlns="http://www.w3.org/2000/svg">
<path d="M7.60011 1.5542H3.40951C3.18612 1.5542 3.00464 1.73568 3.00464 1.9587V5.71723C3.00464 5.94026 3.18612 6.12174 3.40951 6.12174H7.60011C7.82347 6.12174 8.00498 5.94026 8.00498 5.71723V1.9587C8.00498 1.73568 7.82347 1.5542 7.60011 1.5542ZM5.50499 2.34751C5.85191 2.34751 6.13391 2.62918 6.13391 2.97574C6.13391 3.32266 5.85191 3.60502 5.50499 3.60502C5.1584 3.60502 4.87676 3.32266 4.87676 2.97574C4.87676 2.62918 5.1584 2.34751 5.50499 2.34751ZM6.69791 5.32948H4.31167V4.92359C4.31167 4.4737 4.57972 4.09362 4.89732 4.09362H6.11223C6.42983 4.09362 6.69788 4.4737 6.69788 4.92359V5.32948H6.69791ZM9.5314 2.3129C9.5314 2.28081 9.53772 2.24903 9.55 2.21938C9.56229 2.18973 9.58029 2.1628 9.60298 2.14011C9.62567 2.11742 9.65262 2.09942 9.68226 2.08714C9.71191 2.07486 9.74369 2.06855 9.77578 2.06855H16.7515C16.784 2.06802 16.8162 2.07394 16.8463 2.08598C16.8764 2.09802 16.9038 2.11594 16.9269 2.13868C16.9501 2.16142 16.9684 2.18854 16.981 2.21845C16.9935 2.24836 16.9999 2.28047 16.9999 2.3129C16.9999 2.34533 16.9935 2.37744 16.981 2.40735C16.9684 2.43726 16.9501 2.46438 16.9269 2.48712C16.9038 2.50986 16.8764 2.52778 16.8463 2.53982C16.8162 2.55186 16.784 2.55778 16.7515 2.55725H9.77578C9.74369 2.55725 9.71191 2.55094 9.68226 2.53866C9.65262 2.52638 9.62567 2.50838 9.60298 2.48569C9.58029 2.463 9.56229 2.43606 9.55 2.40642C9.53772 2.37677 9.5314 2.34499 9.5314 2.3129ZM16.9959 3.83843C16.9959 3.87052 16.9896 3.9023 16.9773 3.93195C16.965 3.96159 16.947 3.98853 16.9243 4.01122C16.9016 4.03391 16.8747 4.05191 16.845 4.06419C16.8154 4.07647 16.7836 4.08278 16.7515 4.08278H9.77578C9.74336 4.08331 9.71115 4.07739 9.68104 4.06535C9.65092 4.05331 9.62351 4.03539 9.60039 4.01265C9.57727 3.98991 9.5589 3.96279 9.54637 3.93288C9.53384 3.90297 9.52738 3.87086 9.52738 3.83843C9.52738 3.806 9.53384 3.77389 9.54637 3.74398C9.5589 3.71407 9.57727 3.68695 9.60039 3.66421C9.62351 3.64147 9.65092 3.62355 9.68104 3.61151C9.71115 3.59947 9.74336 3.59355 9.77578 3.59408H16.7515C16.8163 3.59409 16.8785 3.61984 16.9243 3.66566C16.9701 3.71148 16.9959 3.77363 16.9959 3.83843ZM9.5314 5.363C9.5314 5.33091 9.53772 5.29914 9.55 5.26949C9.56229 5.23984 9.58029 5.2129 9.60298 5.19021C9.62567 5.16752 9.65262 5.14952 9.68226 5.13724C9.71191 5.12497 9.74369 5.11865 9.77578 5.11865H13.2641C13.2966 5.11812 13.3288 5.12405 13.3589 5.13609C13.389 5.14813 13.4164 5.16604 13.4395 5.18878C13.4627 5.21153 13.481 5.23864 13.4936 5.26855C13.5061 5.29847 13.5125 5.33057 13.5125 5.363C13.5125 5.39543 13.5061 5.42754 13.4936 5.45745C13.481 5.48736 13.4627 5.51448 13.4395 5.53722C13.4164 5.55997 13.389 5.57788 13.3589 5.58992C13.3288 5.60196 13.2966 5.60789 13.2641 5.60735H9.77578C9.74369 5.60736 9.71191 5.60104 9.68226 5.58876C9.65262 5.57648 9.62567 5.55849 9.60298 5.5358C9.58029 5.51311 9.56229 5.48617 9.55 5.45652C9.53772 5.42687 9.5314 5.39509 9.5314 5.363ZM7.60011 7.71675H3.40951C3.18612 7.71675 3.00464 7.89823 3.00464 8.12126V11.8798C3.00464 12.1028 3.18612 12.2843 3.40951 12.2843H7.60011C7.82347 12.2843 8.00498 12.1028 8.00498 11.8798V8.12126C8.00498 7.89823 7.82347 7.71675 7.60011 7.71675ZM5.50499 8.509C5.85191 8.509 6.13391 8.79137 6.13391 9.13829C6.13391 9.48485 5.85191 9.76652 5.50499 9.76652C5.1584 9.76652 4.87676 9.48485 4.87676 9.13829C4.87676 8.79137 5.1584 8.509 5.50499 8.509ZM6.69791 11.491H4.31167V11.0854C4.31167 10.6352 4.57972 10.2551 4.89732 10.2551H6.11223C6.42983 10.2551 6.69788 10.6352 6.69788 11.0854V11.491H6.69791ZM16.9959 8.47443C16.9959 8.50652 16.9896 8.53829 16.9773 8.56794C16.965 8.59759 16.947 8.62453 16.9243 8.64722C16.9016 8.66991 16.8747 8.68791 16.845 8.70019C16.8154 8.71246 16.7836 8.71878 16.7515 8.71878H9.77578C9.74336 8.71931 9.71115 8.71338 9.68104 8.70134C9.65092 8.6893 9.62351 8.67139 9.60039 8.64865C9.57727 8.6259 9.5589 8.59879 9.54637 8.56887C9.53384 8.53896 9.52738 8.50686 9.52738 8.47443C9.52738 8.442 9.53384 8.40989 9.54637 8.37998C9.5589 8.35007 9.57727 8.32295 9.60039 8.30021C9.62351 8.27746 9.65092 8.25955 9.68104 8.24751C9.71115 8.23547 9.74336 8.22954 9.77578 8.23008H16.7515C16.8163 8.23009 16.8785 8.25583 16.9243 8.30165C16.9701 8.34748 16.9959 8.40962 16.9959 8.47443ZM16.9959 9.99999C16.9959 10.0321 16.9896 10.0639 16.9773 10.0935C16.965 10.1232 16.947 10.1501 16.9243 10.1728C16.9016 10.1955 16.8747 10.2135 16.845 10.2257C16.8154 10.238 16.7836 10.2443 16.7515 10.2443H9.77578C9.74336 10.2449 9.71115 10.2389 9.68104 10.2269C9.65092 10.2149 9.62351 10.197 9.60039 10.1742C9.57727 10.1515 9.5589 10.1244 9.54637 10.0944C9.53384 10.0645 9.52738 10.0324 9.52738 9.99999C9.52738 9.96756 9.53384 9.93545 9.54637 9.90554C9.5589 9.87563 9.57727 9.84851 9.60039 9.82577C9.62351 9.80303 9.65092 9.78511 9.68104 9.77307C9.71115 9.76103 9.74336 9.75511 9.77578 9.75564H16.7515C16.8164 9.75564 16.8785 9.78139 16.9243 9.82721C16.9702 9.87303 16.9959 9.93519 16.9959 9.99999ZM9.5314 11.5256C9.5314 11.4935 9.53772 11.4617 9.55 11.432C9.56229 11.4024 9.58029 11.3755 9.60298 11.3528C9.62567 11.3301 9.65262 11.3121 9.68226 11.2998C9.71191 11.2875 9.74369 11.2812 9.77578 11.2812H13.2641C13.2966 11.2807 13.3288 11.2866 13.3589 11.2986C13.389 11.3107 13.4164 11.3286 13.4395 11.3513C13.4627 11.3741 13.481 11.4012 13.4936 11.4311C13.5061 11.461 13.5125 11.4931 13.5125 11.5256C13.5125 11.558 13.5061 11.5901 13.4936 11.62C13.481 11.6499 13.4627 11.677 13.4395 11.6998C13.4164 11.7225 13.389 11.7404 13.3589 11.7525C13.3288 11.7645 13.2966 11.7704 13.2641 11.7699H9.77578C9.74369 11.7699 9.71191 11.7636 9.68226 11.7513C9.65262 11.739 9.62567 11.721 9.60298 11.6983C9.58029 11.6757 9.56229 11.6487 9.55 11.6191C9.53772 11.5894 9.5314 11.5576 9.5314 11.5256ZM7.60011 13.8782H3.40951C3.18612 13.8782 3.00464 14.0597 3.00464 14.2828V18.0413C3.00464 18.2643 3.18612 18.4458 3.40951 18.4458H7.60011C7.82347 18.4458 8.00498 18.2643 8.00498 18.0413V14.2828C8.00498 14.0597 7.82347 13.8782 7.60011 13.8782ZM5.50499 14.6716C5.85191 14.6716 6.13391 14.9539 6.13391 15.3008C6.13391 15.6474 5.85191 15.9291 5.50499 15.9291C5.1584 15.9291 4.87676 15.6474 4.87676 15.3008C4.87676 14.9539 5.1584 14.6716 5.50499 14.6716ZM6.69791 17.6535H4.31167V17.248C4.31167 16.7977 4.57972 16.4177 4.89732 16.4177H6.11223C6.42983 16.4177 6.69788 16.7977 6.69788 17.248V17.6535H6.69791ZM16.9959 14.637C16.9959 14.6691 16.9896 14.7008 16.9773 14.7305C16.965 14.7601 16.947 14.7871 16.9243 14.8098C16.9016 14.8325 16.8747 14.8505 16.845 14.8627C16.8154 14.875 16.7836 14.8813 16.7515 14.8813H9.77578C9.74336 14.8819 9.71115 14.8759 9.68104 14.8639C9.65092 14.8519 9.62351 14.8339 9.60039 14.8112C9.57727 14.7885 9.5589 14.7613 9.54637 14.7314C9.53384 14.7015 9.52738 14.6694 9.52738 14.637C9.52738 14.6045 9.53384 14.5724 9.54637 14.5425C9.5589 14.5126 9.57727 14.4855 9.60039 14.4628C9.62351 14.44 9.65092 14.4221 9.68104 14.4101C9.71115 14.398 9.74336 14.3921 9.77578 14.3926H16.7515C16.8163 14.3926 16.8785 14.4184 16.9243 14.4642C16.9701 14.51 16.9959 14.5722 16.9959 14.637ZM16.9959 16.1625C16.9959 16.1946 16.9896 16.2264 16.9773 16.2561C16.965 16.2857 16.947 16.3126 16.9243 16.3353C16.9016 16.358 16.8747 16.376 16.845 16.3883C16.8154 16.4006 16.7836 16.4069 16.7515 16.4069H9.77578C9.74336 16.4074 9.71115 16.4015 9.68104 16.3895C9.65092 16.3774 9.62351 16.3595 9.60039 16.3368C9.57727 16.314 9.5589 16.2869 9.54637 16.257C9.53384 16.2271 9.52738 16.195 9.52738 16.1625C9.52738 16.1301 9.53384 16.098 9.54637 16.0681C9.5589 16.0382 9.57727 16.0111 9.60039 15.9883C9.62351 15.9656 9.65092 15.9477 9.68104 15.9356C9.71115 15.9236 9.74336 15.9177 9.77578 15.9182H16.7515C16.8164 15.9182 16.8785 15.9439 16.9243 15.9898C16.9702 16.0356 16.9959 16.0977 16.9959 16.1625ZM13.5085 17.6881C13.5085 17.7202 13.5022 17.7519 13.4899 17.7816C13.4776 17.8112 13.4596 17.8382 13.4369 17.8609C13.4143 17.8836 13.3873 17.9016 13.3577 17.9138C13.328 17.9261 13.2962 17.9324 13.2641 17.9324H9.77578C9.74336 17.933 9.71115 17.927 9.68104 17.915C9.65092 17.903 9.62351 17.885 9.60039 17.8623C9.57727 17.8396 9.5589 17.8124 9.54637 17.7825C9.53384 17.7526 9.52738 17.7205 9.52738 17.6881C9.52738 17.6556 9.53384 17.6235 9.54637 17.5936C9.5589 17.5637 9.57727 17.5366 9.60039 17.5139C9.62351 17.4911 9.65092 17.4732 9.68104 17.4612C9.71115 17.4491 9.74336 17.4432 9.77578 17.4437H13.2641C13.329 17.4437 13.3911 17.4695 13.4369 17.5153C13.4828 17.5611 13.5085 17.6233 13.5085 17.6881Z" fill="#333333"/>
</svg>
