<svg width="15" height="15" viewBox="0 0 15 15" fill="none" xmlns="http://www.w3.org/2000/svg">
<path d="M6.45039 3.29999H8.55039C8.55039 3.02151 8.43977 2.75444 8.24285 2.55753C8.04594 2.36061 7.77887 2.24999 7.50039 2.24999C7.22191 2.24999 6.95484 2.36061 6.75793 2.55753C6.56102 2.75444 6.45039 3.02151 6.45039 3.29999ZM5.75039 3.29999C5.75039 2.83586 5.93477 2.39074 6.26295 2.06255C6.59114 1.73436 7.03626 1.54999 7.50039 1.54999C7.96452 1.54999 8.40964 1.73436 8.73783 2.06255C9.06602 2.39074 9.25039 2.83586 9.25039 3.29999H12.7504C12.8432 3.29999 12.9322 3.33686 12.9979 3.4025C13.0635 3.46814 13.1004 3.55716 13.1004 3.64999C13.1004 3.74281 13.0635 3.83184 12.9979 3.89748C12.9322 3.96311 12.8432 3.99999 12.7504 3.99999H12.0126L11.1768 11.2408C11.1177 11.7526 10.8725 12.2249 10.4879 12.5677C10.1033 12.9105 9.60602 13.1 9.09079 13.1H5.90999C5.39476 13.1 4.89752 12.9105 4.51289 12.5677C4.12825 12.2249 3.88307 11.7526 3.82399 11.2408L2.98819 3.99999H2.25039C2.15756 3.99999 2.06854 3.96311 2.0029 3.89748C1.93727 3.83184 1.90039 3.74281 1.90039 3.64999C1.90039 3.55716 1.93727 3.46814 2.0029 3.4025C2.06854 3.33686 2.15756 3.29999 2.25039 3.29999H5.75039ZM4.51909 11.161C4.55859 11.5022 4.72212 11.8169 4.97858 12.0454C5.23504 12.2738 5.56653 12.4 5.90999 12.4H9.09079C9.43425 12.4 9.76574 12.2738 10.0222 12.0454C10.2787 11.8169 10.4422 11.5022 10.4817 11.161L11.3077 3.99999H3.69309L4.51909 11.161ZM6.45039 5.74999C6.54322 5.74999 6.63224 5.78686 6.69788 5.8525C6.76352 5.91814 6.80039 6.00716 6.80039 6.09999V10.3C6.80039 10.3928 6.76352 10.4818 6.69788 10.5475C6.63224 10.6131 6.54322 10.65 6.45039 10.65C6.35756 10.65 6.26854 10.6131 6.2029 10.5475C6.13727 10.4818 6.10039 10.3928 6.10039 10.3V6.09999C6.10039 6.00716 6.13727 5.91814 6.2029 5.8525C6.26854 5.78686 6.35756 5.74999 6.45039 5.74999ZM8.90039 6.09999C8.90039 6.00716 8.86352 5.91814 8.79788 5.8525C8.73224 5.78686 8.64322 5.74999 8.55039 5.74999C8.45757 5.74999 8.36854 5.78686 8.3029 5.8525C8.23727 5.91814 8.20039 6.00716 8.20039 6.09999V10.3C8.20039 10.3928 8.23727 10.4818 8.3029 10.5475C8.36854 10.6131 8.45757 10.65 8.55039 10.65C8.64322 10.65 8.73224 10.6131 8.79788 10.5475C8.86352 10.4818 8.90039 10.3928 8.90039 10.3V6.09999Z" fill="#DE0000"/>
</svg>
