<svg width="15" height="15" viewBox="0 0 15 15" fill="none" xmlns="http://www.w3.org/2000/svg">
<path d="M9.68693 2.21909C9.90571 2.00037 10.2024 1.8775 10.5118 1.8775C10.8211 1.8775 11.1178 2.00037 11.3366 2.21909L12.7803 3.66284C12.8887 3.77118 12.9747 3.89981 13.0334 4.04139C13.092 4.18297 13.1222 4.33471 13.1222 4.48796C13.1222 4.64121 13.092 4.79296 13.0334 4.93454C12.9747 5.07611 12.8887 5.20475 12.7803 5.31309L5.84276 12.2507L2.12109 12.8783L2.74934 9.15667L9.68693 2.21909ZM9.55334 4.00234L10.9971 5.44609L11.9555 4.48767L10.5118 3.0445L9.55334 4.00234ZM10.1717 6.2715L8.72851 4.82775L3.83784 9.71842L3.54443 11.455L5.28101 11.1622L10.1717 6.2715Z" fill="#444444"/>
</svg>
