<svg width="33" height="32" viewBox="0 0 33 32" fill="none" xmlns="http://www.w3.org/2000/svg">
<path d="M5.01367 8.00002C5.01367 7.11637 5.73002 6.40002 6.61367 6.40002H25.8137C26.6973 6.40002 27.4137 7.11637 27.4137 8.00002C27.4137 8.88368 26.6973 9.60002 25.8137 9.60002H6.61367C5.73002 9.60002 5.01367 8.88368 5.01367 8.00002Z" fill="#444444"/>
<path d="M5.01367 16C5.01367 15.1164 5.73002 14.4 6.61367 14.4H25.8137C26.6973 14.4 27.4137 15.1164 27.4137 16C27.4137 16.8837 26.6973 17.6 25.8137 17.6H6.61367C5.73002 17.6 5.01367 16.8837 5.01367 16Z" fill="#444444"/>
<path d="M5.01367 24C5.01367 23.1164 5.73002 22.4 6.61367 22.4H16.2137C17.0973 22.4 17.8137 23.1164 17.8137 24C17.8137 24.8837 17.0973 25.6 16.2137 25.6H6.61367C5.73002 25.6 5.01367 24.8837 5.01367 24Z" fill="#444444"/>
</svg>
