<svg width="20" height="20" viewBox="0 0 20 20" fill="none" xmlns="http://www.w3.org/2000/svg">
<path d="M17.5312 2.93749H8.09375C7.83469 2.93749 7.625 3.14708 7.625 3.40624C7.625 3.6653 7.83469 3.87499 8.09375 3.87499H17.5312C17.7903 3.87499 18 3.6653 18 3.40624C18 3.14708 17.7903 2.93749 17.5312 2.93749ZM8.09375 5.74999H12.8125C13.0716 5.74999 13.2812 5.5403 13.2812 5.28124C13.2812 5.02208 13.0716 4.81249 12.8125 4.81249H8.09375C7.83469 4.81249 7.625 5.02208 7.625 5.28124C7.625 5.5403 7.83469 5.74999 8.09375 5.74999ZM8.09375 11.4062H12.8125C13.0716 11.4062 13.2812 11.1966 13.2812 10.9375C13.2812 10.6783 13.0716 10.4687 12.8125 10.4687H8.09375C7.83469 10.4687 7.625 10.6783 7.625 10.9375C7.625 11.1966 7.83469 11.4062 8.09375 11.4062ZM12.8125 17.0625C13.0716 17.0625 13.2812 16.8528 13.2812 16.5937C13.2812 16.3346 13.0716 16.125 12.8125 16.125H8.09375C7.83469 16.125 7.625 16.3346 7.625 16.5937C7.625 16.8528 7.83469 17.0625 8.09375 17.0625H12.8125ZM17.5312 8.59374H8.09375C7.83469 8.59374 7.625 8.80334 7.625 9.06249C7.625 9.32156 7.83469 9.53124 8.09375 9.53124H17.5312C17.7903 9.53124 18 9.32156 18 9.06249C18 8.80334 17.7903 8.59374 17.5312 8.59374ZM17.5312 14.25H8.09375C7.83469 14.25 7.625 14.4596 7.625 14.7187C7.625 14.9778 7.83469 15.1875 8.09375 15.1875H17.5312C17.7903 15.1875 18 14.9778 18 14.7187C18 14.4596 17.7903 14.25 17.5312 14.25ZM6.42844 5.70055C6.50628 5.66159 6.57174 5.60173 6.61749 5.52767C6.66325 5.45362 6.68749 5.36829 6.6875 5.28124V3.40624C6.6875 3.31918 6.66327 3.23385 6.61751 3.15979C6.57176 3.08574 6.50629 3.02588 6.42844 2.98692L4.55344 2.04942C4.48832 2.01692 4.41653 2 4.34375 2C4.27097 2 4.19918 2.01692 4.13406 2.04942L2.25906 2.98692C2.18121 3.02588 2.11574 3.08574 2.06999 3.15979C2.02423 3.23385 2 3.31918 2 3.40624L2 5.28124C2.00001 5.36829 2.02425 5.45362 2.07001 5.52767C2.11576 5.60173 2.18122 5.66159 2.25906 5.70055L3.875 6.50852V7.83521L2.25906 8.64318C2.18121 8.68213 2.11574 8.74199 2.06999 8.81605C2.02423 8.89011 2 8.97544 2 9.06249V10.9375C2.00001 11.0245 2.02425 11.1099 2.07001 11.1839C2.11576 11.258 2.18122 11.3178 2.25906 11.3568L3.875 12.1648V13.4915L2.25906 14.2994C2.18121 14.3384 2.11574 14.3982 2.06999 14.4723C2.02423 14.5464 2 14.6317 2 14.7187V16.5937C2.00001 16.6808 2.02425 16.7661 2.07001 16.8402C2.11576 16.9142 2.18122 16.9741 2.25906 17.0131L4.13406 17.9506C4.19991 17.9835 4.27188 18 4.34375 18C4.41562 18 4.48756 17.9835 4.55344 17.9506L6.42844 17.0131C6.50628 16.9741 6.57174 16.9142 6.61749 16.8402C6.66325 16.7661 6.68749 16.6808 6.6875 16.5937V14.7187C6.6875 14.6317 6.66327 14.5464 6.61751 14.4723C6.57176 14.3982 6.50629 14.3384 6.42844 14.2994L4.8125 13.4915V12.1648L6.42844 11.3568C6.50628 11.3178 6.57174 11.258 6.61749 11.1839C6.66325 11.1099 6.68749 11.0245 6.6875 10.9375V9.06249C6.6875 8.97544 6.66327 8.89011 6.61751 8.81605C6.57176 8.74199 6.50629 8.68213 6.42844 8.64318L4.8125 7.83521V6.50852L6.42844 5.70055ZM4.34294 16.125C4.08403 16.125 3.87419 15.9152 3.87419 15.6562C3.87419 15.3973 4.08403 15.1875 4.34294 15.1875C4.60184 15.1875 4.81169 15.3973 4.81169 15.6562C4.81169 15.9152 4.60184 16.125 4.34294 16.125ZM4.34294 10.4687C4.08403 10.4687 3.87419 10.2589 3.87419 9.99999C3.87419 9.74109 4.08403 9.53124 4.34294 9.53124C4.60184 9.53124 4.81169 9.74109 4.81169 9.99999C4.81169 10.2589 4.60184 10.4687 4.34294 10.4687ZM4.34294 4.81249C4.08403 4.81249 3.87419 4.60264 3.87419 4.34374C3.87419 4.08483 4.08403 3.87499 4.34294 3.87499C4.60184 3.87499 4.81169 4.08483 4.81169 4.34374C4.81169 4.60264 4.60184 4.81249 4.34294 4.81249Z" fill="#333333"/>
</svg>
