<svg width="20" height="20" viewBox="0 0 20 20" fill="none" xmlns="http://www.w3.org/2000/svg">
<path fill-rule="evenodd" clip-rule="evenodd" d="M10.0422 5.32915C12.6631 5.32915 14.7957 7.46178 14.7957 10.0827C14.7957 10.1445 14.7939 10.2068 14.7914 10.269C14.9907 10.2032 15.211 10.1714 15.4578 10.1714C16.0201 10.1714 16.4462 10.3384 16.7985 10.6968C16.9577 10.8592 17.0775 11.0774 17.154 11.325L17.9042 11.2903C17.9635 11.2877 18.0196 11.2622 18.0607 11.2192C18.1018 11.1762 18.1246 11.119 18.1245 11.0595V9.10613C18.1245 8.98237 18.0279 8.88114 17.9042 8.87542L16.7241 8.82069C16.4365 8.80745 16.199 8.61966 16.1199 8.3428C15.9878 7.88142 15.8033 7.43665 15.5701 7.01715C15.4299 6.76533 15.465 6.4645 15.6592 6.25131L16.4555 5.3778C16.4956 5.33391 16.5172 5.27621 16.5158 5.21676C16.5144 5.1573 16.4901 5.10068 16.4479 5.05873L15.0669 3.67728C15.0249 3.63517 14.9682 3.61092 14.9088 3.60958C14.8493 3.60825 14.7916 3.62994 14.7478 3.67013L13.8743 4.46602C13.6611 4.66025 13.3606 4.69531 13.1084 4.55509C12.6888 4.32187 12.2439 4.1374 11.7824 4.0053C11.5052 3.92589 11.3178 3.68873 11.3042 3.40114L11.2495 2.22108C11.2437 2.09731 11.1421 2.00073 11.0187 2.00073H9.06532C8.94156 2.00073 8.84033 2.09731 8.8346 2.22108L8.77988 3.40114C8.76628 3.68873 8.57885 3.92589 8.30199 4.0053C7.84047 4.1374 7.39558 4.32187 6.97598 4.55509C6.7238 4.69531 6.42333 4.66025 6.21014 4.46602L5.33627 3.66977C5.29239 3.62967 5.23474 3.60803 5.1753 3.60936C5.11587 3.6107 5.05924 3.6349 5.0172 3.67693L3.63576 5.05837C3.59359 5.10032 3.56927 5.15694 3.56787 5.2164C3.56647 5.27586 3.5881 5.33356 3.62824 5.37744L4.42449 6.25095C4.61872 6.46414 4.65378 6.76461 4.51356 7.01679C4.28028 7.43623 4.09581 7.88102 3.96377 8.34244C3.88472 8.6193 3.64756 8.8071 3.35961 8.82033L2.17955 8.87506C2.12017 8.87773 2.06412 8.90321 2.02307 8.9462C1.98202 8.98918 1.95914 9.04634 1.9592 9.10578V11.0592C1.9592 11.183 2.05578 11.2842 2.17955 11.2899L2.84666 11.321C2.92357 11.0749 3.04269 10.8582 3.20115 10.6965C3.55348 10.3381 3.98022 10.171 4.54432 10.171C4.82547 10.171 5.07265 10.2129 5.29335 10.2994C5.29013 10.2272 5.28798 10.1549 5.28798 10.0823C5.2887 7.46178 7.42096 5.32915 10.0422 5.32915ZM14.2388 12.8059C13.9802 12.1888 14.0635 11.3611 14.4205 10.9977C14.6941 10.7194 15.0043 10.6006 15.4575 10.6006C15.9028 10.6006 16.2219 10.723 16.4919 10.9977C16.8489 11.3611 16.9323 12.1888 16.6737 12.8059C16.5152 13.1839 16.1754 13.6346 15.4564 13.6346C14.7374 13.6346 14.3976 13.1839 14.2388 12.8059ZM14.4885 14.9742C14.8583 15.577 15.0529 16.2623 15.0529 16.977V18H17.941C18.1778 18 18.3702 17.8076 18.3702 17.5708V17.2775C18.3702 16.0019 17.412 14.9642 16.2337 14.9642H14.6787C14.6151 14.9642 14.5518 14.9682 14.4885 14.9742ZM9.8444 14.8762L9.45307 16.3045L10 17.3204L10.5537 16.2924L10.1581 14.8795C10.088 14.6291 10.1327 14.3744 10.2837 14.163L10.7172 13.5563H9.28281L9.71741 14.1648C9.86765 14.374 9.91272 14.6269 9.8444 14.8762ZM7.60196 13.7716L9.81077 17.8745C9.84833 17.9439 9.92059 17.9875 9.99964 17.9875C10.0787 17.9875 10.1513 17.9442 10.1885 17.8745L12.3973 13.7716C13.7358 14.271 14.6233 15.5376 14.6233 16.977V18H13.0598V16.8658C13.0598 16.7474 12.9636 16.6512 12.8452 16.6512C12.7264 16.6512 12.6305 16.7474 12.6305 16.8658V18H7.36874V16.8658C7.36874 16.7474 7.27252 16.6512 7.15412 16.6512C7.03572 16.6512 6.9395 16.7474 6.9395 16.8658V18H5.37598V16.977C5.37634 15.5376 6.26344 14.271 7.60196 13.7716ZM3.76632 14.9642C2.5884 14.9642 1.62976 16.0019 1.62976 17.2775V17.5708C1.62976 17.8072 1.8222 18 2.059 18H4.94709V16.977C4.94709 16.2623 5.14168 15.577 5.51155 14.9742C5.44823 14.9682 5.38492 14.9642 5.32125 14.9642H3.76632ZM5.76122 12.8062C5.60276 13.1843 5.26294 13.635 4.54396 13.635C3.82462 13.635 3.48481 13.1843 3.32634 12.8062C3.06772 12.1892 3.15107 11.3614 3.50806 10.998C3.7817 10.7197 4.09183 10.601 4.54539 10.601C4.99073 10.601 5.31016 10.7233 5.57987 10.998C5.9365 11.3611 6.01984 12.1892 5.76122 12.8062ZM11.571 8.36784C12.1226 8.92871 12.2496 10.1524 11.8543 11.095C11.6569 11.5661 11.1536 12.3559 10.0004 12.3559C8.84677 12.3559 8.34312 11.5657 8.14567 11.0946C7.75041 10.1521 7.87775 8.92907 8.42933 8.36784C8.84033 7.94968 9.32537 7.76296 10.0021 7.76296C10.6757 7.76296 11.1597 7.94932 11.571 8.36784Z" fill="#333333"/>
</svg>
