<svg width="20" height="20" viewBox="0 0 20 20" fill="none" xmlns="http://www.w3.org/2000/svg">
<path d="M7.79127 16.9779C7.80114 16.9993 7.80307 17.0235 7.79669 17.0462C7.78988 17.0715 7.77358 17.0932 7.75118 17.1069C7.74685 17.109 7.74142 17.1123 7.73709 17.1145L6.22611 17.987C6.20318 17.9992 6.17648 18.0023 6.15136 17.9957C6.12623 17.9891 6.10454 17.9732 6.09062 17.9512V17.9502L3.74702 13.8919L3.74268 13.8854C3.73314 13.8639 3.7316 13.8397 3.73834 13.8171C3.74135 13.8046 3.74684 13.7927 3.75447 13.7823C3.7621 13.7719 3.77173 13.7631 3.7828 13.7564L5.28731 12.8881C5.29704 12.8838 5.30788 12.8773 5.31764 12.8719C5.3384 12.8625 5.36175 12.8606 5.38375 12.8664C5.40573 12.8729 5.42508 12.8862 5.43906 12.9044C5.44332 12.9126 5.44801 12.9205 5.45312 12.9282L5.67001 13.3044C5.67326 13.3087 5.67543 13.3141 5.67865 13.3195C5.68115 13.3241 5.68405 13.3285 5.68732 13.3325L7.78791 16.9714L7.79127 16.9779ZM10.8371 13.234C10.8369 13.1746 10.8567 13.1169 10.8935 13.0703C11.1634 12.6389 11.3995 12.2736 11.6371 11.9063C12.1205 11.1584 12.6083 10.4018 13.0343 9.66692C13.2543 9.28755 13.211 8.95481 13.0386 8.72285C12.9665 8.62755 12.8758 8.5479 12.7719 8.48872C12.667 8.42666 12.5511 8.38543 12.4305 8.3673C12.2757 8.34113 12.1165 8.36317 11.9746 8.43045C11.8327 8.49772 11.7149 8.60697 11.6371 8.74341C11.1775 9.513 10.4252 10.2826 9.5658 10.998C9.12682 11.3644 8.65849 11.7166 8.18705 12.0473C8.1773 12.0558 8.16679 12.0634 8.15564 12.07C7.51178 12.5199 6.86466 12.9295 6.27393 13.2808L7.75133 15.84L8.49706 15.4162C8.53938 15.3926 8.5873 15.3808 8.63577 15.3821C8.68423 15.3835 8.73143 15.3979 8.7724 15.4238C9.06722 15.6135 9.64602 15.6688 10.2921 15.6482C11.182 15.62 12.1748 15.4411 12.7688 15.2578C12.822 15.2416 13.0279 15.1787 13.2219 15.1201C14.0153 14.8784 14.4164 14.756 14.8316 14.5403C15.2185 14.3397 15.6348 14.0503 16.4054 13.5018H11.1048C11.0696 13.502 11.0347 13.4951 11.0021 13.4817C10.9696 13.4682 10.94 13.4485 10.9151 13.4236C10.8903 13.3987 10.8705 13.3691 10.8571 13.3366C10.8437 13.304 10.8369 13.2692 10.837 13.234H10.8371ZM4.55781 11.4509C4.57867 11.4393 4.5945 11.4204 4.60224 11.3978C4.61034 11.3748 4.60917 11.3495 4.59898 11.3273C4.59682 11.323 4.59465 11.3176 4.59139 11.3122L2.51025 7.12616C2.49864 7.10287 2.47843 7.085 2.4539 7.07631C2.43132 7.06834 2.40657 7.06912 2.38453 7.07848L2.37803 7.08173L0.810656 7.86108C0.805829 7.86404 0.800749 7.86657 0.795474 7.86864C0.774775 7.88095 0.759053 7.90014 0.751049 7.92286C0.743461 7.94558 0.744621 7.97031 0.754302 7.99223C0.756383 7.99785 0.758921 8.00329 0.761893 8.00849L2.84401 12.1946C2.84966 12.2062 2.85757 12.2166 2.86726 12.2251C2.87695 12.2337 2.88824 12.2402 2.90047 12.2443C2.92284 12.2512 2.94686 12.2504 2.96875 12.2422L2.97526 12.2389L4.54263 11.4596C4.54805 11.4563 4.55243 11.4542 4.55781 11.4509ZM5.4011 9.81418C5.44497 9.79309 5.49372 9.78427 5.54219 9.78866C5.59066 9.79304 5.63704 9.81047 5.67641 9.83909C5.85093 9.96702 6.1447 10.0504 6.5013 10.1014C6.91528 10.1544 7.33298 10.1725 7.74999 10.1556V4.66334C7.22146 5.12555 6.66192 5.55107 6.0753 5.9369C5.1864 6.52425 4.26504 7.06093 3.31563 7.54439L4.63141 10.1914L5.4011 9.81418ZM14.9386 3.18052V2.00011H12.6006V5.6356H14.9386V3.18052ZM12.0651 2.00011H8.28545V2.91277H12.0651V2.00011ZM15.4741 3.44714H19.2537V12.9662H17.2572C17.2517 12.9661 17.2463 12.9664 17.2409 12.9673V12.9662H11.5893C11.7453 12.7234 11.9155 12.4602 12.0868 12.1945C12.5712 11.4433 13.0623 10.6835 13.497 9.93448C13.8417 9.33942 13.7573 8.79529 13.4677 8.40507C13.3528 8.25112 13.2079 8.12202 13.0417 8.02552C12.8771 7.92976 12.6958 7.86613 12.5074 7.83798C12.0174 7.76536 11.495 7.94097 11.1796 8.46883C10.7525 9.18315 10.0425 9.90719 9.22522 10.5879C8.92389 10.8383 8.60738 11.0832 8.28538 11.3196V3.44714H12.0651V5.90335C12.0653 5.97431 12.0935 6.04231 12.1437 6.09248C12.1939 6.14266 12.2619 6.17091 12.3328 6.17106H15.2063C15.2415 6.1711 15.2763 6.16419 15.3088 6.15075C15.3413 6.13731 15.3709 6.11759 15.3957 6.09273C15.4206 6.06786 15.4403 6.03834 15.4538 6.00584C15.4672 5.97335 15.4741 5.93852 15.4741 5.90335V3.44714ZM15.8676 10.7767C15.8675 10.8119 15.8744 10.8467 15.8879 10.8792C15.9013 10.9117 15.921 10.9412 15.9459 10.9661C15.9708 10.9909 16.0003 11.0107 16.0328 11.0241C16.0653 11.0376 16.1001 11.0445 16.1353 11.0444H18.315C18.3504 11.0449 18.3856 11.0382 18.4184 11.025C18.4512 11.0117 18.4811 10.992 18.5063 10.9671C18.5315 10.9422 18.5515 10.9126 18.5652 10.8799C18.5788 10.8472 18.5858 10.8121 18.5858 10.7767C18.5858 10.7413 18.5788 10.7062 18.5652 10.6735C18.5515 10.6408 18.5315 10.6112 18.5063 10.5863C18.4811 10.5614 18.4512 10.5417 18.4184 10.5285C18.3856 10.5152 18.3504 10.5086 18.315 10.509H16.1353C16.0643 10.5091 15.9963 10.5374 15.9461 10.5876C15.896 10.6377 15.8677 10.7057 15.8676 10.7767ZM15.8676 11.9949C15.8678 12.0657 15.8961 12.1336 15.9463 12.1836C15.9965 12.2336 16.0644 12.2616 16.1353 12.2615H18.315C18.3503 12.2619 18.3854 12.2553 18.4182 12.2421C18.451 12.2289 18.4808 12.2092 18.5059 12.1844C18.5311 12.1595 18.551 12.1299 18.5647 12.0973C18.5783 12.0647 18.5853 12.0297 18.5853 11.9944C18.5853 11.959 18.5783 11.924 18.5647 11.8914C18.551 11.8588 18.5311 11.8292 18.5059 11.8043C18.4808 11.7795 18.451 11.7598 18.4182 11.7466C18.3854 11.7334 18.3503 11.7268 18.315 11.7272H16.1353C16.1001 11.7271 16.0653 11.734 16.0328 11.7475C16.0003 11.761 15.9707 11.7807 15.9459 11.8056C15.921 11.8304 15.9013 11.86 15.8878 11.8925C15.8744 11.925 15.8675 11.9598 15.8676 11.995V11.9949ZM15.4741 2V2.91277H19.2537V2.00011L15.4741 2Z" fill="#333333"/>
</svg>
