<svg width="20" height="20" viewBox="0 0 20 20" fill="none" xmlns="http://www.w3.org/2000/svg">
<path d="M7.42609 17.2348C7.42609 17.5269 7.53461 17.7941 7.7127 18H3.32174C2.5927 18 2 17.4073 2 16.6783V4.43478C2 3.70573 2.5927 3.11304 3.32174 3.11304H4.92174V4.22608H3.32174C3.20765 4.22608 3.11304 4.32069 3.11304 4.43478V16.6783C3.11304 16.7923 3.20765 16.8869 3.32174 16.8869H7.42609V17.2348ZM14.1043 4.43478V7.9826H12.9913V4.43478C12.9913 4.32069 12.8967 4.22608 12.7826 4.22608H11.1826V3.11304H12.7826C13.5117 3.11304 14.1043 3.70573 14.1043 4.43478Z" fill="#333333"/>
<path d="M11.1603 4.64343C11.1123 4.91629 10.9696 5.16349 10.7574 5.34161C10.5452 5.51972 10.277 5.61735 9.99996 5.61735H6.10431C5.52274 5.61735 5.04135 5.19717 4.94396 4.64343H3.5304V16.4695H7.42605V14.1739C7.42605 14.1488 7.42605 14.1266 7.42883 14.1043H4.99127C4.87718 14.1043 4.78257 14.0097 4.78257 13.8956C4.78257 13.7815 4.87718 13.6869 4.99127 13.6869H7.53457C7.71822 13.2779 8.13005 12.9913 8.60866 12.9913H10.1502C10.0167 12.8354 9.91926 12.6434 9.88031 12.4347H4.99127C4.87718 12.4347 4.78257 12.3401 4.78257 12.226C4.78257 12.112 4.87718 12.0173 4.99127 12.0173H9.86083V10.7652H4.99127C4.87718 10.7652 4.78257 10.6706 4.78257 10.5565C4.78257 10.4424 4.87718 10.3478 4.99127 10.3478H9.86083V9.16517C9.86083 9.14013 9.86083 9.11787 9.86361 9.09561H4.99127C4.87718 9.09561 4.78257 9.001 4.78257 8.88691C4.78257 8.77282 4.87718 8.67822 4.99127 8.67822H9.96935C10.153 8.26917 10.5648 7.98256 11.0434 7.98256H12.5739V4.64343H11.1603ZM11.113 7.42604H4.99127C4.87718 7.42604 4.78257 7.33143 4.78257 7.21735C4.78257 7.10326 4.87718 7.00865 4.99127 7.00865H11.113C11.2271 7.00865 11.3217 7.10326 11.3217 7.21735C11.3217 7.33143 11.2271 7.42604 11.113 7.42604Z" fill="#333333"/>
<path d="M10.5565 3.11304H9.3572C9.25702 2.48306 8.70996 2 8.05215 2C7.39435 2 6.84729 2.48306 6.74711 3.11304H5.54781C5.49246 3.11304 5.43937 3.13503 5.40024 3.17417C5.3611 3.21331 5.33911 3.26639 5.33911 3.32174V4.43478C5.33933 4.63766 5.42002 4.83217 5.56348 4.97563C5.70694 5.11909 5.90145 5.19978 6.10433 5.2H9.99998C10.2029 5.19978 10.3974 5.11909 10.5408 4.97563C10.6843 4.83217 10.765 4.63766 10.7652 4.43478V3.32174C10.7652 3.26639 10.7432 3.21331 10.7041 3.17417C10.6649 3.13503 10.6119 3.11304 10.5565 3.11304Z" fill="#333333"/>
<path d="M15.0087 15.0783H16.1217C16.1401 15.0783 16.1578 15.0709 16.1709 15.0579C16.1839 15.0448 16.1913 15.0271 16.1913 15.0087V13.4087H14.9391V15.0087C14.9391 15.0471 14.9703 15.0783 15.0087 15.0783Z" fill="#333333"/>
<path d="M17.2348 13.4087H16.6087V15.0087C16.6087 15.2772 16.3903 15.4956 16.1218 15.4956H15.0087C14.7402 15.4956 14.5218 15.2772 14.5218 15.0087V13.4087H13.8957C13.6928 13.4089 13.4983 13.4896 13.3549 13.6331C13.2114 13.7765 13.1307 13.971 13.1305 14.1739V17.2348C13.1307 17.4377 13.2114 17.6322 13.3549 17.7756C13.4983 17.9191 13.6928 17.9998 13.8957 18H17.2348C17.4377 17.9998 17.6322 17.9191 17.7757 17.7756C17.9191 17.6322 17.9998 17.4377 18 17.2348V14.1739C17.9998 13.971 17.9191 13.7765 17.7757 13.6331C17.6322 13.4896 17.4377 13.4089 17.2348 13.4087ZM9.72179 15.0783H10.8348C10.8533 15.0783 10.871 15.0709 10.884 15.0579C10.8971 15.0448 10.9044 15.0271 10.9044 15.0087V13.4087H9.65222V15.0087C9.65222 15.0471 9.68339 15.0783 9.72179 15.0783Z" fill="#333333"/>
<path d="M11.9479 13.4087H11.3218V15.0087C11.3218 15.2772 11.1033 15.4957 10.8348 15.4957H9.72177C9.45324 15.4957 9.23481 15.2772 9.23481 15.0087V13.4087H8.60872C8.40584 13.4089 8.21134 13.4896 8.06788 13.6331C7.92442 13.7765 7.84373 13.9711 7.84351 14.1739V17.2348C7.84373 17.4377 7.92442 17.6322 8.06788 17.7757C8.21134 17.9191 8.40584 17.9998 8.60872 18H11.9479C12.1507 17.9998 12.3452 17.9191 12.4887 17.7757C12.6322 17.6322 12.7128 17.4377 12.7131 17.2348V14.1739C12.7128 13.9711 12.6322 13.7765 12.4887 13.6331C12.3452 13.4896 12.1507 13.4089 11.9479 13.4087ZM12.1565 10.0696H13.2696C13.288 10.0696 13.3057 10.0623 13.3188 10.0492C13.3318 10.0362 13.3392 10.0185 13.3392 10V8.40002H12.087V10C12.087 10.0384 12.1181 10.0696 12.1565 10.0696Z" fill="#333333"/>
<path d="M14.3827 8.40002H13.7566V10C13.7566 10.2685 13.5381 10.487 13.2696 10.487H12.1566C11.8881 10.487 11.6696 10.2685 11.6696 10V8.40002H11.0435C10.8407 8.40025 10.6461 8.48094 10.5027 8.6244C10.3592 8.76785 10.2785 8.96236 10.2783 9.16524V12.2261C10.2785 12.429 10.3592 12.6235 10.5027 12.767C10.6461 12.9104 10.8407 12.9911 11.0435 12.9913H14.3827C14.5855 12.9911 14.7801 12.9104 14.9235 12.767C15.067 12.6235 15.1477 12.429 15.1479 12.2261V9.16524C15.1477 8.96236 15.067 8.76785 14.9235 8.6244C14.7801 8.48094 14.5855 8.40025 14.3827 8.40002Z" fill="#333333"/>
</svg>
