<svg width="20" height="20" viewBox="0 0 20 20" fill="none" xmlns="http://www.w3.org/2000/svg">
<path d="M5.07934 9.34955H2.69235C2.50907 9.3493 2.33318 9.42177 2.20329 9.55106C2.07339 9.68036 2.0001 9.85591 1.99951 10.0392V15.3569C1.99993 15.5405 2.07306 15.7165 2.2029 15.8463C2.33274 15.9762 2.50872 16.0493 2.69235 16.0497H5.07966C5.26323 16.0492 5.43913 15.976 5.5689 15.8462C5.69867 15.7164 5.77175 15.5404 5.77218 15.3569V10.0392C5.77158 9.85591 5.6983 9.68036 5.5684 9.55106C5.43851 9.42177 5.26262 9.3493 5.07934 9.34955ZM3.76664 14.9892C3.68407 14.9896 3.60223 14.9737 3.52582 14.9424C3.44941 14.9111 3.37994 14.865 3.32139 14.8068C3.26284 14.7486 3.21637 14.6794 3.18464 14.6031C3.15292 14.5269 3.13657 14.4452 3.13653 14.3626C3.13653 14.0144 3.41846 13.7328 3.76664 13.7328C4.11129 13.7328 4.39323 14.0144 4.39323 14.3626C4.39323 14.7108 4.11161 14.9892 3.76664 14.9892ZM17.9792 12.6515C17.9559 12.5462 17.9104 12.4472 17.8459 12.3609C17.7813 12.2746 17.6991 12.203 17.6048 12.151C17.5112 12.0968 17.4072 12.0631 17.2997 12.0523C17.1921 12.0414 17.0835 12.0536 16.981 12.0879L11.9686 13.729C11.8057 13.7863 11.6342 13.8155 11.4614 13.8154H8.93169C8.89895 13.8157 8.86649 13.8094 8.83618 13.797C8.80588 13.7847 8.77835 13.7664 8.7552 13.7432C8.73205 13.7201 8.71375 13.6925 8.70136 13.6622C8.68897 13.6319 8.68274 13.5995 8.68304 13.5667C8.68304 13.4307 8.79248 13.3181 8.93169 13.3181H11.4614C11.5773 13.3181 11.6867 13.3014 11.7929 13.2649C11.7961 13.2649 11.7993 13.2617 11.8025 13.2617L11.8061 13.2585C12.0059 13.1873 12.1788 13.056 12.3011 12.8827C12.4234 12.7093 12.489 12.5023 12.489 12.2902C12.4894 12.0172 12.3814 11.7552 12.1887 11.5619C11.996 11.3685 11.7344 11.2596 11.4614 11.2591H9.81685C9.62306 11.2591 9.43143 11.2184 9.2544 11.1396C9.07736 11.0607 8.9189 10.9455 8.78928 10.8015L8.44111 10.4171C8.35689 10.3251 8.25444 10.2517 8.14028 10.2014C8.02613 10.1512 7.90276 10.1252 7.77803 10.1253H6.26948V15.3572C6.26948 15.4436 6.25988 15.5262 6.24292 15.6059L8.56719 16.9285C9.04467 17.1992 9.58448 17.3407 10.1333 17.339C10.6822 17.3373 11.2211 17.1925 11.6969 16.9189L17.6108 13.4973C17.7557 13.4154 17.8699 13.2886 17.9363 13.1361C18.0027 12.9836 18.0176 12.8136 17.9789 12.6518L17.9792 12.6515ZM9.78709 6.54813C9.14417 6.94406 8.64644 7.5372 8.36814 8.2391H6.04419C5.58977 8.2391 5.27167 7.78467 5.43072 7.36033C5.61552 6.86677 5.94658 6.44138 6.37966 6.14103C6.81273 5.84069 7.32717 5.67971 7.8542 5.67961C8.21965 5.67834 8.58116 5.75517 8.91452 5.90496C9.24787 6.05475 9.54537 6.27403 9.78709 6.54813ZM9.0837 3.89105C9.0837 4.57012 8.53391 5.11991 7.85452 5.11991C7.17512 5.11991 6.62566 4.57012 6.62566 3.89105C6.62566 3.21165 7.17512 2.66187 7.85452 2.66187C8.53391 2.66187 9.08338 3.21165 9.08338 3.89073L9.0837 3.89105ZM17.2598 8.2391H14.8993C14.6242 7.54574 14.1352 6.95813 13.5034 6.56158C13.7465 6.28385 14.0463 6.06143 14.3826 5.9093C14.7189 5.75717 15.0839 5.67885 15.453 5.67961C16.5602 5.67961 17.5049 6.37917 17.8729 7.36033C17.909 7.45908 17.9207 7.56505 17.9071 7.66928C17.8935 7.77352 17.855 7.87294 17.7948 7.95915C17.7347 8.04535 17.6547 8.1158 17.5615 8.16453C17.4684 8.21326 17.3649 8.23884 17.2598 8.2391ZM16.6802 3.89105C16.6802 4.57012 16.1301 5.11991 15.451 5.11991C14.772 5.11991 14.2219 4.57012 14.2219 3.89105C14.2218 3.72964 14.2536 3.56981 14.3153 3.42068C14.3771 3.27155 14.4676 3.13605 14.5817 3.0219C14.6958 2.90776 14.8313 2.81721 14.9804 2.75544C15.1295 2.69366 15.2893 2.66187 15.4507 2.66187C15.6122 2.66178 15.772 2.6935 15.9212 2.75522C16.0704 2.81694 16.2059 2.90745 16.3201 3.02156C16.4343 3.13568 16.5248 3.27118 16.5866 3.42031C16.6484 3.56945 16.6802 3.72962 16.6802 3.89105ZM13.7457 9.50284C14.275 9.50284 14.6449 8.97289 14.4596 8.47687C14.0324 7.33249 12.9296 6.51645 11.6365 6.51645C10.3401 6.51645 9.23634 7.33249 8.8088 8.47687C8.62383 8.97289 8.99345 9.50284 9.52276 9.50284H13.7457ZM13.0682 4.37779C13.0682 5.17047 12.4266 5.81178 11.6345 5.81178C10.8425 5.81178 10.2002 5.17047 10.2002 4.37811C10.2002 3.58543 10.8419 2.94412 11.6342 2.94412C12.4266 2.94412 13.0682 3.58543 13.0682 4.37779Z" fill="#333333"/>
</svg>
