<svg width="20" height="20" viewBox="0 0 20 20" fill="none" xmlns="http://www.w3.org/2000/svg">
<path fill-rule="evenodd" clip-rule="evenodd" d="M12.9334 1.87773C12.8798 1.8215 12.815 1.77712 12.7433 1.74745C12.6715 1.71779 12.5943 1.7035 12.5167 1.70551H7.48335C7.4051 1.70501 7.32752 1.71997 7.25507 1.74952C7.18261 1.77908 7.11671 1.82265 7.06113 1.87773C6.95174 1.98895 6.88996 2.1384 6.88891 2.2944V7.62773H13.1111V2.2944C13.108 2.13774 13.0443 1.98839 12.9334 1.87773ZM10.4222 4.09995H9.57224C9.42521 4.08569 9.28876 4.01719 9.18948 3.90781C9.0902 3.79843 9.03519 3.65601 9.03519 3.50829C9.03519 3.36057 9.0902 3.21814 9.18948 3.10876C9.28876 2.99938 9.42521 2.93088 9.57224 2.91662H10.4222C10.5693 2.93088 10.7057 2.99938 10.805 3.10876C10.9043 3.21814 10.9593 3.36057 10.9593 3.50829C10.9593 3.65601 10.9043 3.79843 10.805 3.90781C10.7057 4.01719 10.5693 4.08569 10.4222 4.09995ZM3.77779 8.81662C3.69999 8.81589 3.62282 8.83058 3.55073 8.85984C3.47864 8.88911 3.41306 8.93237 3.35779 8.98712C3.30252 9.04188 3.25864 9.10705 3.2287 9.17886C3.19876 9.25067 3.18335 9.32771 3.18335 9.40551V14.15H9.40557V8.81662H3.77779ZM6.71668 11.1833H5.87224C5.78972 11.1913 5.70644 11.1819 5.62775 11.1559C5.54906 11.1298 5.4767 11.0875 5.41531 11.0318C5.35392 10.9761 5.30487 10.9081 5.2713 10.8323C5.23774 10.7565 5.22039 10.6745 5.22039 10.5916C5.22039 10.5087 5.23774 10.4267 5.2713 10.3509C5.30487 10.2751 5.35392 10.2072 5.41531 10.1515C5.4767 10.0957 5.54906 10.0535 5.62775 10.0274C5.70644 10.0013 5.78972 9.99195 5.87224 9.99995H6.71668C6.7992 9.99195 6.88248 10.0013 6.96117 10.0274C7.03986 10.0535 7.11222 10.0957 7.17361 10.1515C7.235 10.2072 7.28405 10.2751 7.31762 10.3509C7.35119 10.4267 7.36853 10.5087 7.36853 10.5916C7.36853 10.6745 7.35119 10.7565 7.31762 10.8323C7.28405 10.9081 7.235 10.9761 7.17361 11.0318C7.11222 11.0875 7.03986 11.1298 6.96117 11.1559C6.88248 11.1819 6.7992 11.1913 6.71668 11.1833ZM16.6667 8.98884C16.6119 8.93417 16.547 8.89083 16.4755 8.86128C16.404 8.83173 16.3274 8.81655 16.25 8.81662H10.5945V14.15H16.8167V9.40551C16.8211 9.25266 16.7675 9.10381 16.6667 8.98884ZM14.15 11.1833H13.2778C13.1953 11.1913 13.112 11.1819 13.0333 11.1559C12.9546 11.1298 12.8823 11.0875 12.8209 11.0318C12.7595 10.9761 12.7104 10.9081 12.6769 10.8323C12.6433 10.7565 12.626 10.6745 12.626 10.5916C12.626 10.5087 12.6433 10.4267 12.6769 10.3509C12.7104 10.2751 12.7595 10.2072 12.8209 10.1515C12.8823 10.0957 12.9546 10.0535 13.0333 10.0274C13.112 10.0013 13.1953 9.99195 13.2778 9.99995H14.1222C14.2048 9.99195 14.288 10.0013 14.3667 10.0274C14.4454 10.0535 14.5178 10.0957 14.5792 10.1515C14.6406 10.2072 14.6896 10.2751 14.7232 10.3509C14.7567 10.4267 14.7741 10.5087 14.7741 10.5916C14.7741 10.6745 14.7567 10.7565 14.7232 10.8323C14.6896 10.9081 14.6406 10.9761 14.5792 11.0318C14.5178 11.0875 14.4454 11.1298 14.3667 11.1559C14.288 11.1819 14.2048 11.1913 14.1222 11.1833H14.15Z" fill="#333333"/>
<path d="M18.2944 15.3333H1.70556C1.62304 15.3253 1.53976 15.3347 1.46107 15.3608C1.38238 15.3869 1.31002 15.4291 1.24863 15.4848C1.18724 15.5406 1.13819 15.6085 1.10462 15.6843C1.07105 15.7601 1.05371 15.8421 1.05371 15.925C1.05371 16.0079 1.07105 16.0899 1.10462 16.1657C1.13819 16.2415 1.18724 16.3095 1.24863 16.3652C1.31002 16.4209 1.38238 16.4632 1.46107 16.4892C1.53976 16.5153 1.62304 16.5247 1.70556 16.5167H3.48333V17.7056C3.4976 17.8526 3.56609 17.989 3.67547 18.0883C3.78485 18.1876 3.92728 18.2426 4.075 18.2426C4.22272 18.2426 4.36515 18.1876 4.47453 18.0883C4.58391 17.989 4.6524 17.8526 4.66667 17.7056V16.5167H15.3333V17.7056C15.3476 17.8526 15.4161 17.989 15.5255 18.0883C15.6349 18.1876 15.7773 18.2426 15.925 18.2426C16.0727 18.2426 16.2151 18.1876 16.3245 18.0883C16.4339 17.989 16.5024 17.8526 16.5167 17.7056V16.5167H18.2944C18.377 16.5247 18.4602 16.5153 18.5389 16.4892C18.6176 16.4632 18.69 16.4209 18.7514 16.3652C18.8128 16.3095 18.8618 16.2415 18.8954 16.1657C18.9289 16.0899 18.9463 16.0079 18.9463 15.925C18.9463 15.8421 18.9289 15.7601 18.8954 15.6843C18.8618 15.6085 18.8128 15.5406 18.7514 15.4848C18.69 15.4291 18.6176 15.3869 18.5389 15.3608C18.4602 15.3347 18.377 15.3253 18.2944 15.3333Z" fill="#333333"/>
</svg>
