<svg width="12" height="12" viewBox="0 0 12 12" fill="none" xmlns="http://www.w3.org/2000/svg">
<path d="M5.73625 1.30849C6.09552 1.28749 6.2752 1.73552 6.00097 1.9686C5.36521 2.50892 4.99219 3.29792 4.99219 4.14844C4.99219 5.72762 6.27238 7.00781 7.85156 7.00781C8.70207 7.00781 9.49107 6.63478 10.0314 5.99901C10.2642 5.72506 10.7119 5.90407 10.6916 6.26304C10.5516 8.74011 8.49775 10.6875 6.00586 10.6875C3.41379 10.6875 1.3125 8.58621 1.3125 5.99414C1.3125 3.51691 3.23774 1.47042 5.69763 1.31075L5.70005 1.3106L5.73625 1.30849ZM4.78535 2.24306L4.73716 2.25902C3.17695 2.78839 2.0625 4.2667 2.0625 5.99414C2.0625 8.172 3.828 9.9375 6.00586 9.9375C7.74352 9.9375 9.22779 8.81025 9.74945 7.23738L9.75677 7.21472L9.75549 7.21555C9.20259 7.55927 8.5587 7.75174 7.88373 7.75766L7.85156 7.75781C5.85816 7.75781 4.24219 6.14184 4.24219 4.14844C4.24219 3.46178 4.43527 2.80617 4.78445 2.24453L4.78535 2.24306Z" fill="black"/>
</svg>
