<svg fill="#75ac71" height="64" viewBox="0 0 32 32" width="64" xmlns="http://www.w3.org/2000/svg"><g id="no_bell_alarm"><path d="m18.8198242 29c-.4096679 1.1601563-1.5200195 2-2.8198242 2s-2.4101563-.8398438-2.8198242-2zm-11.8198242-17v7.5c0 .5600586-.3701172 1.4599609-.7700195 1.8500977l-.8798828.8798828c-.7700196.7700195-1.3500977 2.1801758-1.3500977 3.2700195v.5c0 .5498047.4501953 1 1 1h17.4199219l-15.4101563-15.4101562c-.0097656.1401367-.0097656.2700195-.0097656.4101562zm23.7070313 17.2929688-2.8339844-2.8339844c.0742187-.1391602.1269531-.2910156.1269531-.4589844v-.5c0-1.0898438-.5800781-2.5-1.3500977-3.2700195l-.8798828-.8798828c-.3999023-.3901368-.7700195-1.2900391-.7700195-1.8500977v-7.5c0-4.6201172-3.5097656-8.4399414-8-8.9399414v-1.0600586c0-.5498047-.4501953-1-1-1s-1 .4501953-1 1v1.0600586c-2.7226563.3071289-5.0698242 1.8398438-6.5048828 4.0209961l-5.7880859-5.7880859c-.390625-.390625-1.0234375-.390625-1.4140625 0s-.390625 1.0234375 0 1.4140625l28 28c.1953125.1953125.4511718.2929687.7070312.2929687s.5117188-.0976563.7070313-.2929688c.390625-.3906249.390625-1.0234374 0-1.4140624z"/></g></svg>