<svg width="74" height="74" viewBox="0 0 74 74" fill="none" xmlns="http://www.w3.org/2000/svg">
<circle cx="37" cy="37" r="37" fill="#ECFFF1"/>
<path d="M16.4714 52.7017C16.4052 52.5397 16.3724 52.3644 16.3752 52.1877V22.8127C16.3752 22.4231 16.52 22.0495 16.7779 21.7741C17.0358 21.4986 17.3855 21.3439 17.7502 21.3439H23.2502C23.6148 21.3439 23.9646 21.4986 24.2224 21.7741C24.4803 22.0495 24.6252 22.4231 24.6252 22.8127V43.992L16.4714 52.7017ZM28.7502 22.8127C28.7502 22.4231 28.6053 22.0495 28.3474 21.7741C28.0896 21.4986 27.7398 21.3439 27.3752 21.3439C27.0105 21.3439 26.6608 21.4986 26.4029 21.7741C26.145 22.0495 26.0002 22.4231 26.0002 22.8127V42.5233L28.7502 39.5858V22.8127ZM41.1252 22.8127C41.1279 22.6359 41.0951 22.4606 41.0289 22.2986C40.9314 22.0198 40.7569 21.7792 40.5286 21.6088C40.3002 21.4383 40.0288 21.3459 39.7502 21.3439H31.5002C31.1355 21.3439 30.7858 21.4986 30.5279 21.7741C30.27 22.0495 30.1252 22.4231 30.1252 22.8127V38.117L41.1252 26.367V22.8127ZM43.8752 21.3439C43.5105 21.3439 43.1608 21.4986 42.9029 21.7741C42.645 22.0495 42.5002 22.4231 42.5002 22.8127V24.8983L45.8277 21.3439H43.8752ZM56.2502 21.3439H54.0777L57.2264 17.9805C57.4853 17.7039 57.6308 17.3288 57.6308 16.9377C57.6308 16.5465 57.4853 16.1714 57.2264 15.8948C56.9675 15.6183 56.6163 15.4629 56.2502 15.4629C55.884 15.4629 55.5328 15.6183 55.2739 15.8948L50.0077 21.5202L42.5002 29.5395L41.1252 31.0083L30.1252 42.7583L28.7502 44.227L26.0002 47.1645L24.6252 48.6333L19.9227 53.6564L16.7739 57.0198C16.645 57.1564 16.5427 57.3188 16.4729 57.4978C16.4031 57.6768 16.3672 57.8688 16.3672 58.0627C16.3672 58.2565 16.4031 58.4485 16.4729 58.6275C16.5427 58.8065 16.645 58.9689 16.7739 59.1055C16.9017 59.2431 17.0538 59.3524 17.2214 59.427C17.3889 59.5015 17.5686 59.5399 17.7502 59.5399C17.9317 59.5399 18.1114 59.5015 18.279 59.427C18.4465 59.3524 18.5986 59.2431 18.7264 59.1055L26.0002 51.3358V52.1877C26.0002 52.5772 26.145 52.9508 26.4029 53.2262C26.6608 53.5017 27.0105 53.6564 27.3752 53.6564C27.7398 53.6564 28.0896 53.5017 28.3474 53.2262C28.6053 52.9508 28.7502 52.5772 28.7502 52.1877V48.3983L30.1252 46.9295V52.1877C30.1252 52.5772 30.27 52.9508 30.5279 53.2262C30.7858 53.5017 31.1355 53.6564 31.5002 53.6564H39.7502C40.1148 53.6564 40.4646 53.5017 40.7224 53.2262C40.9803 52.9508 41.1252 52.5772 41.1252 52.1877V35.1795L42.5002 33.7108V52.1877C42.5002 52.5772 42.645 52.9508 42.9029 53.2262C43.1608 53.5017 43.5105 53.6564 43.8752 53.6564H49.3752C49.7398 53.6564 50.0896 53.5017 50.3474 53.2262C50.6053 52.9508 50.7502 52.5772 50.7502 52.1877V24.8983L52.1252 23.4295V52.1877C52.1252 52.5772 52.27 52.9508 52.5279 53.2262C52.7858 53.5017 53.1355 53.6564 53.5002 53.6564H56.2502C56.6148 53.6564 56.9646 53.5017 57.2224 53.2262C57.4803 52.9508 57.6252 52.5772 57.6252 52.1877V22.8127C57.6252 22.4231 57.4803 22.0495 57.2224 21.7741C56.9646 21.4986 56.6148 21.3439 56.2502 21.3439Z" fill="#56B973"/>
</svg>
