<svg width="18" height="18" viewBox="0 0 18 18" fill="none" xmlns="http://www.w3.org/2000/svg">
<path d="M9 1.5C4.86 1.5 1.5 4.86001 1.5 9.00001C1.5 13.14 4.86 16.5 9 16.5C13.14 16.5 16.5001 13.14 16.5001 9.00001C16.5001 4.86001 13.14 1.5 9 1.5ZM9 15C5.685 15 2.99999 12.315 2.99999 9.00001C2.99999 7.61251 3.47249 6.3375 4.2675 5.325L12.675 13.7325C11.6625 14.5275 10.3875 15 9 15ZM13.7326 12.675L5.325 4.2675C6.3375 3.4725 7.61249 3 9 3C12.315 3 15 5.685 15 9.00001C15 10.3875 14.5275 11.6625 13.7326 12.675Z" fill="#FF0101"/>
</svg>
