<svg width="20" height="20" viewBox="0 0 20 20" fill="none" xmlns="http://www.w3.org/2000/svg">
<path d="M8.85718 2H12.2857V3.14286H8.85718V2ZM15.556 15.1909C15.6029 15.1596 15.658 15.1429 15.7143 15.1429C15.7707 15.1429 15.8257 15.1596 15.8726 15.1909L16.2857 15.4663V14H15.1429V15.4663L15.556 15.1909Z" fill="#333333"/>
<path d="M18 14H16.8571V16C16.8571 16.0517 16.8431 16.1024 16.8165 16.1467C16.7899 16.1911 16.7518 16.2273 16.7063 16.2517C16.6607 16.2761 16.6094 16.2877 16.5578 16.2852C16.5062 16.2828 16.4562 16.2663 16.4131 16.2377L15.7143 15.7714L15.0154 16.2371C14.9725 16.2662 14.9225 16.2829 14.8708 16.2856C14.8191 16.2883 14.7676 16.2768 14.7219 16.2524C14.6762 16.228 14.6381 16.1916 14.6116 16.1472C14.585 16.1027 14.5712 16.0518 14.5714 16V14H13.4286V18H17.4286C17.5801 18 17.7255 17.9398 17.8326 17.8326C17.9398 17.7255 18 17.5801 18 17.4286V14ZM14 12.2857L15.1429 13.4286H16.2857L15.1429 12.2857H14ZM12.1143 12.2857L13.2571 13.4286H14.5714L13.4286 12.2857H12.1143ZM16.8531 12.4531C16.746 12.346 16.6007 12.2857 16.4491 12.2857H15.7143L16.8571 13.4286H17.8286L16.8531 12.4531ZM11.7143 12.6857L12.8571 13.8286V17.8286L11.8817 16.8531C11.7745 16.746 11.7143 16.6007 11.7143 16.4491V12.6857ZM2 4.28571H3.14286V11.7143H2V4.28571ZM3.71429 4.28571H4.85714V11.7143H3.71429V4.28571ZM4.85714 3.71429H2V3.42857C2 3.04969 2.15051 2.68633 2.41842 2.41842C2.68633 2.15051 3.04969 2 3.42857 2C3.80745 2 4.17081 2.15051 4.43872 2.41842C4.70663 2.68633 4.85714 3.04969 4.85714 3.42857V3.71429ZM2 12.2857H4.85714L3.684 14.9629C3.57886 15.2029 3.27829 15.2029 3.17314 14.9629L2 12.2857ZM7.71429 5.42857H8.85714V6.57143H7.71429V5.42857ZM7.71429 8.85714H8.85714V10H7.71429V8.85714Z" fill="#333333"/>
<path d="M14.5714 2H12.8571V3.14286C12.8571 3.29441 12.7969 3.43975 12.6898 3.54692C12.5826 3.65408 12.4373 3.71429 12.2857 3.71429H8.85714C8.70559 3.71429 8.56025 3.65408 8.45308 3.54692C8.34592 3.43975 8.28571 3.29441 8.28571 3.14286V2H6.57143C6.41988 2 6.27453 2.0602 6.16737 2.16737C6.0602 2.27453 6 2.41988 6 2.57143V14.5714C6 14.723 6.0602 14.8683 6.16737 14.9755C6.27453 15.0827 6.41988 15.1429 6.57143 15.1429H11.1429V12.2857C11.1429 12.1342 11.2031 11.9888 11.3102 11.8817C11.4174 11.7745 11.5627 11.7143 11.7143 11.7143H15.1429V2.57143C15.1429 2.41988 15.0827 2.27453 14.9755 2.16737C14.8683 2.0602 14.723 2 14.5714 2ZM9.42857 13.4286C9.42857 13.5801 9.36837 13.7255 9.2612 13.8326C9.15404 13.9398 9.0087 14 8.85714 14H7.71429C7.56273 14 7.41739 13.9398 7.31022 13.8326C7.20306 13.7255 7.14286 13.5801 7.14286 13.4286V12.2857C7.14286 12.1342 7.20306 11.9888 7.31022 11.8817C7.41739 11.7745 7.56273 11.7143 7.71429 11.7143H8.85714C9.0087 11.7143 9.15404 11.7745 9.2612 11.8817C9.36837 11.9888 9.42857 12.1342 9.42857 12.2857V13.4286ZM9.42857 10C9.42857 10.1516 9.36837 10.2969 9.2612 10.4041C9.15404 10.5112 9.0087 10.5714 8.85714 10.5714H7.71429C7.56273 10.5714 7.41739 10.5112 7.31022 10.4041C7.20306 10.2969 7.14286 10.1516 7.14286 10V8.85714C7.14286 8.70559 7.20306 8.56025 7.31022 8.45308C7.41739 8.34592 7.56273 8.28571 7.71429 8.28571H8.85714C9.0087 8.28571 9.15404 8.34592 9.2612 8.45308C9.36837 8.56025 9.42857 8.70559 9.42857 8.85714V10ZM9.42857 6.57143C9.42857 6.72298 9.36837 6.86833 9.2612 6.97549C9.15404 7.08265 9.0087 7.14286 8.85714 7.14286H7.71429C7.56273 7.14286 7.41739 7.08265 7.31022 6.97549C7.20306 6.86833 7.14286 6.72298 7.14286 6.57143V5.42857C7.14286 5.27702 7.20306 5.13167 7.31022 5.02451C7.41739 4.91735 7.56273 4.85714 7.71429 4.85714H8.85714C9.0087 4.85714 9.15404 4.91735 9.2612 5.02451C9.36837 5.13167 9.42857 5.27702 9.42857 5.42857V6.57143Z" fill="#333333"/>
<path d="M7.71423 12.2858H8.85709V13.4286H7.71423V12.2858Z" fill="#333333"/>
</svg>
