<svg width="21" height="21" viewBox="0 0 21 21" fill="none" xmlns="http://www.w3.org/2000/svg">
<path d="M16.6737 7.52V6.33333C16.6737 4.78624 16.0591 3.30251 14.9651 2.20854C13.8712 1.11458 12.3874 0.5 10.8403 0.5C9.29323 0.5 7.8095 1.11458 6.71554 2.20854C5.62158 3.30251 5.00699 4.78624 5.00699 6.33333V7.52C4.26479 7.84392 3.63307 8.3771 3.18908 9.05434C2.74508 9.73158 2.50806 10.5235 2.50699 11.3333V16.3333C2.50832 17.438 2.94773 18.497 3.72884 19.2782C4.50996 20.0593 5.569 20.4987 6.67366 20.5H15.007C16.1117 20.4987 17.1707 20.0593 17.9518 19.2782C18.7329 18.497 19.1723 17.438 19.1737 16.3333V11.3333C19.1726 10.5235 18.9356 9.73158 18.4916 9.05434C18.0476 8.3771 17.4159 7.84392 16.6737 7.52ZM6.67366 6.33333C6.67366 5.22826 7.11265 4.16846 7.89405 3.38705C8.67545 2.60565 9.73526 2.16667 10.8403 2.16667C11.9454 2.16667 13.0052 2.60565 13.7866 3.38705C14.568 4.16846 15.007 5.22826 15.007 6.33333V7.16667H6.67366V6.33333ZM17.507 16.3333C17.507 16.9964 17.2436 17.6323 16.7748 18.1011C16.3059 18.5699 15.67 18.8333 15.007 18.8333H6.67366C6.01062 18.8333 5.37473 18.5699 4.90589 18.1011C4.43705 17.6323 4.17366 16.9964 4.17366 16.3333V11.3333C4.17366 10.6703 4.43705 10.0344 4.90589 9.56557C5.37473 9.09672 6.01062 8.83333 6.67366 8.83333H15.007C15.67 8.83333 16.3059 9.09672 16.7748 9.56557C17.2436 10.0344 17.507 10.6703 17.507 11.3333V16.3333Z" fill="#CCCCCC"/>
<path d="M10.8403 12.1667C10.6193 12.1667 10.4074 12.2545 10.2511 12.4107C10.0948 12.567 10.007 12.779 10.007 13V14.6667C10.007 14.8877 10.0948 15.0996 10.2511 15.2559C10.4074 15.4122 10.6193 15.5 10.8403 15.5C11.0614 15.5 11.2733 15.4122 11.4296 15.2559C11.5859 15.0996 11.6737 14.8877 11.6737 14.6667V13C11.6737 12.779 11.5859 12.567 11.4296 12.4107C11.2733 12.2545 11.0614 12.1667 10.8403 12.1667Z" fill="#CCCCCC"/>
</svg>
