<svg width="20" height="20" viewBox="0 0 20 20" fill="none" xmlns="http://www.w3.org/2000/svg">
<path fill-rule="evenodd" clip-rule="evenodd" d="M18.0082 3.37057V3.39662H11.0695V3.37057C11.0695 2.85047 10.8558 2.35824 10.4796 2H16.6376C17.0142 2 17.3568 2.15428 17.6054 2.40279C17.8539 2.65134 18.0082 2.99393 18.0082 3.37054L18.0082 3.37057ZM5.17564 15.9125C4.89646 15.6333 4.72316 15.248 4.72316 14.8239V14.5923C4.72316 14.0328 4.26447 13.5743 3.70505 13.5743C3.14562 13.5743 2.687 14.0329 2.687 14.5923V17.9999H10.3127V16.3649H6.26423C5.84019 16.3649 5.45481 16.1916 5.17564 15.9125ZM5.54539 15.5427C5.73003 15.7274 5.9845 15.842 6.26419 15.842C6.54389 15.842 6.79839 15.7273 6.98303 15.5427C7.16768 15.3581 7.28332 15.1036 7.28332 14.8239V13.5743H4.85992C5.09997 13.8461 5.24614 14.2029 5.24614 14.5923V14.8239C5.24614 15.1036 5.36077 15.3581 5.54542 15.5427L5.54539 15.5427ZM10.808 3.91961H15.431V14.8239C15.431 15.1036 15.3163 15.3581 15.1317 15.5427C14.9471 15.7273 14.6926 15.842 14.4129 15.842H7.41907C7.66764 15.5611 7.80469 15.199 7.80428 14.8239V10.1679C8.85083 9.43923 9.53594 8.22751 9.53594 6.85563C9.53594 5.48375 8.85086 4.27203 7.80431 3.54335V3.37057C7.80431 2.61787 8.42339 2 9.17593 2C9.92847 2 10.5465 2.61728 10.5465 3.37057V3.65812C10.5465 3.72747 10.5741 3.79398 10.6231 3.84302C10.6722 3.89206 10.7387 3.91961 10.808 3.91961ZM10.7533 12.882C10.7291 12.8576 10.7003 12.8383 10.6685 12.8251C10.6368 12.8119 10.6028 12.8051 10.5684 12.8051C10.5341 12.8051 10.5001 12.8119 10.4683 12.8251C10.4366 12.8383 10.4078 12.8576 10.3836 12.882L9.69224 13.5732L9.52479 13.2829C9.50763 13.2531 9.48478 13.2271 9.45753 13.2061C9.43028 13.1852 9.39918 13.1699 9.36601 13.161C9.33283 13.1521 9.29823 13.1499 9.26418 13.1544C9.23013 13.1589 9.1973 13.17 9.16756 13.1872C9.10752 13.2219 9.0637 13.279 9.04575 13.3459C9.02781 13.4129 9.0372 13.4843 9.07186 13.5443L9.40974 14.1295C9.42979 14.1642 9.45756 14.1939 9.4909 14.2163C9.52425 14.2386 9.56228 14.253 9.60206 14.2584C9.61354 14.2597 9.62485 14.2603 9.63622 14.2603C9.67056 14.2603 9.70457 14.2536 9.73629 14.2404C9.76802 14.2273 9.79684 14.208 9.82109 14.1837L10.7533 13.2515C10.8554 13.1496 10.8554 12.9838 10.7533 12.882V12.882ZM10.7533 11.0464C10.7042 10.9975 10.6378 10.97 10.5684 10.97C10.4991 10.97 10.4326 10.9975 10.3836 11.0464L9.69224 11.7378L9.52479 11.4475C9.49006 11.3875 9.43291 11.3438 9.36592 11.3259C9.29893 11.308 9.22758 11.3174 9.16756 11.3522C9.04254 11.424 8.99969 11.5841 9.07186 11.7091L9.40974 12.2944C9.42983 12.3291 9.45762 12.3588 9.49096 12.381C9.52431 12.4033 9.56232 12.4176 9.60206 12.4229C9.61354 12.4246 9.62485 12.4252 9.63622 12.4252C9.70554 12.4253 9.77204 12.3978 9.82109 12.3488L10.7533 11.4162C10.8554 11.3142 10.8554 11.1489 10.7533 11.0464ZM11.2381 6.19177C11.2381 6.26112 11.2657 6.32763 11.3147 6.37667C11.3637 6.42571 11.4303 6.45326 11.4996 6.45326H14.4533C14.5227 6.45326 14.5892 6.42571 14.6382 6.37667C14.6873 6.32763 14.7148 6.26112 14.7148 6.19177C14.7148 6.12242 14.6873 6.05591 14.6382 6.00687C14.5892 5.95783 14.5227 5.93028 14.4533 5.93028H11.4996C11.4303 5.93028 11.3637 5.95783 11.3147 6.00687C11.2657 6.05591 11.2381 6.12242 11.2381 6.19177ZM11.2381 8.02698C11.2381 8.09633 11.2657 8.16284 11.3147 8.21188C11.3637 8.26092 11.4303 8.28847 11.4996 8.28847H14.4533C14.5227 8.28847 14.5892 8.26092 14.6382 8.21188C14.6873 8.16284 14.7148 8.09633 14.7148 8.02698C14.7148 7.95763 14.6873 7.89111 14.6382 7.84208C14.5892 7.79304 14.5227 7.76549 14.4533 7.76549H11.4996C11.4303 7.76549 11.3637 7.79304 11.3147 7.84208C11.2657 7.89111 11.2381 7.95763 11.2381 8.02698ZM11.2381 9.86222C11.2381 9.93157 11.2657 9.99808 11.3147 10.0471C11.3637 10.0962 11.4303 10.1237 11.4996 10.1237H14.4533C14.5227 10.1237 14.5892 10.0962 14.6382 10.0471C14.6873 9.99808 14.7148 9.93157 14.7148 9.86222C14.7148 9.79287 14.6873 9.72636 14.6382 9.67732C14.5892 9.62828 14.5227 9.60073 14.4533 9.60073H11.4996C11.4303 9.60073 11.3637 9.62828 11.3147 9.67732C11.2657 9.72636 11.2381 9.79287 11.2381 9.86222ZM11.2381 11.6974C11.2381 11.7668 11.2657 11.8333 11.3147 11.8823C11.3637 11.9314 11.4303 11.9589 11.4996 11.9589H14.4533C14.5227 11.9589 14.5892 11.9314 14.6382 11.8823C14.6873 11.8333 14.7148 11.7668 14.7148 11.6974C14.7148 11.6281 14.6873 11.5616 14.6382 11.5125C14.5892 11.4635 14.5227 11.4359 14.4533 11.4359H11.4996C11.4303 11.4359 11.3637 11.4635 11.3147 11.5125C11.2657 11.5616 11.2381 11.6281 11.2381 11.6974ZM11.2381 13.5327C11.2381 13.602 11.2657 13.6685 11.3147 13.7176C11.3637 13.7666 11.4303 13.7942 11.4996 13.7942H14.4533C14.5227 13.7942 14.5892 13.7666 14.6382 13.7176C14.6873 13.6685 14.7148 13.602 14.7148 13.5327C14.7148 13.4633 14.6873 13.3968 14.6382 13.3478C14.5892 13.2987 14.5227 13.2712 14.4533 13.2712H11.4996C11.4303 13.2712 11.3637 13.2987 11.3147 13.3478C11.2657 13.3968 11.2381 13.4633 11.2381 13.5327ZM10.7533 9.21111C10.7042 9.16214 10.6378 9.13464 10.5684 9.13464C10.4991 9.13464 10.4326 9.16214 10.3836 9.21111L9.69224 9.90246L9.52479 9.6125C9.50763 9.58274 9.48478 9.55667 9.45753 9.53575C9.43028 9.51484 9.39918 9.4995 9.36601 9.49062C9.33283 9.48173 9.29823 9.47947 9.26418 9.48397C9.23013 9.48847 9.1973 9.49963 9.16756 9.51682C9.04254 9.58899 8.99969 9.7488 9.07186 9.87409L9.40974 10.4591C9.42973 10.4939 9.4575 10.5235 9.49086 10.5458C9.52422 10.5681 9.56228 10.5824 9.60206 10.5875C9.61354 10.5892 9.62485 10.5899 9.63622 10.5899C9.67055 10.5899 9.70454 10.5831 9.73626 10.57C9.76799 10.5569 9.79681 10.5377 9.82109 10.5134L10.7533 9.58108C10.8023 9.53199 10.8299 9.46545 10.8299 9.39606C10.8299 9.32668 10.8023 9.26013 10.7533 9.21104V9.21111ZM1.99182 6.85563C1.99182 4.92206 3.56884 3.34504 5.5024 3.34504C7.43597 3.34504 9.01299 4.92206 9.01299 6.85563C9.01299 8.78919 7.43597 10.3662 5.5024 10.3662C3.56884 10.3662 1.99182 8.78919 1.99182 6.85563ZM3.37658 8.87542C3.42689 8.93261 3.48883 8.97841 3.55826 9.00975C3.62769 9.04108 3.70301 9.05723 3.77918 9.05712H7.2257C7.38014 9.05712 7.5269 8.99093 7.62823 8.87542C7.67836 8.81805 7.71567 8.75064 7.73767 8.67769C7.75967 8.60475 7.76585 8.52795 7.7558 8.45242L7.36403 5.49012C7.32814 5.21811 7.0942 5.01323 6.8199 5.01323H6.49395V4.8662C6.49395 4.31936 6.04912 3.87447 5.5024 3.87447C4.95569 3.87447 4.51086 4.31936 4.51086 4.8662V5.01323H4.18495C3.91071 5.01323 3.67671 5.21811 3.64075 5.49012L3.24897 8.45242C3.23892 8.52795 3.2451 8.60475 3.26711 8.6777C3.28912 8.75064 3.32644 8.81805 3.37658 8.87542ZM5.97096 4.86624C5.97096 4.60762 5.76073 4.39738 5.50237 4.39738C5.24402 4.39738 5.03385 4.60762 5.03385 4.86624V5.01326H5.97096V4.86624ZM3.77918 8.53424H7.2257C7.22883 8.53424 7.23217 8.53391 7.23495 8.53061C7.23779 8.52731 7.23786 8.52414 7.2374 8.52084L6.84559 5.55886C6.84382 5.545 6.83369 5.53631 6.81993 5.53631H6.49398V5.77413C6.49437 5.80872 6.48789 5.84303 6.47492 5.8751C6.46195 5.90716 6.44276 5.93633 6.41844 5.96092C6.39412 5.98552 6.36516 6.00504 6.33325 6.01836C6.30133 6.03169 6.26709 6.03855 6.2325 6.03855C6.19792 6.03855 6.16368 6.03169 6.13176 6.01836C6.09985 6.00504 6.07089 5.98552 6.04657 5.96092C6.02225 5.93633 6.00305 5.90716 5.99009 5.8751C5.97712 5.84303 5.97064 5.80872 5.97103 5.77413V5.53631H5.03391V5.77413C5.0343 5.80872 5.02782 5.84304 5.01485 5.87511C5.00188 5.90718 4.98268 5.93635 4.95836 5.96095C4.93404 5.98554 4.90508 6.00507 4.87316 6.01839C4.84124 6.03172 4.80699 6.03858 4.7724 6.03858C4.73781 6.03858 4.70357 6.03172 4.67165 6.01839C4.63973 6.00507 4.61077 5.98554 4.58645 5.96095C4.56213 5.93635 4.54292 5.90718 4.52996 5.87511C4.51699 5.84304 4.51051 5.80872 4.5109 5.77413V5.53631H4.18498C4.17119 5.53631 4.16109 5.54497 4.15926 5.55886L3.76748 8.52084C3.76712 8.52414 3.76712 8.52731 3.76986 8.53061C3.77271 8.53391 3.77598 8.53424 3.77918 8.53424Z" fill="#333333"/>
</svg>
