<svg width="20" height="20" viewBox="0 0 20 20" fill="none" xmlns="http://www.w3.org/2000/svg">
<path d="M13.779 11.1073L12.2362 10.2692L10.3809 18.0178H14.5714V12.4445C14.5714 12.171 14.4979 11.9025 14.3585 11.6673C14.2191 11.432 14.0189 11.2386 13.779 11.1073ZM7.71429 4.30355C7.71429 3.92683 7.60257 3.55857 7.39328 3.24533C7.18398 2.9321 6.8865 2.68796 6.53845 2.54379C6.1904 2.39963 5.80742 2.36191 5.43794 2.4354C5.06845 2.5089 4.72906 2.69031 4.46267 2.95669C4.19629 3.22308 4.01488 3.56247 3.94139 3.93196C3.86789 4.30144 3.90561 4.68442 4.04978 5.03247C4.19394 5.38052 4.43808 5.678 4.75131 5.88729C5.06455 6.09659 5.43281 6.2083 5.80954 6.2083C6.2128 6.2042 6.60409 6.07066 6.92572 5.82735C7.099 5.47256 7.33227 5.15036 7.61524 4.87498C7.67909 4.69115 7.71254 4.49815 7.71429 4.30355Z" fill="#333333"/>
<path d="M10 10.0177C11.4728 10.0177 12.6667 8.82385 12.6667 7.3511C12.6667 5.87835 11.4728 4.68445 10 4.68445C8.52727 4.68445 7.33337 5.87835 7.33337 7.3511C7.33337 8.82385 8.52727 10.0177 10 10.0177Z" fill="#333333"/>
<path d="M16.0952 4.30355C16.0952 3.79838 15.8945 3.3139 15.5373 2.95669C15.1801 2.59948 14.6956 2.3988 14.1904 2.3988C13.6852 2.3988 13.2008 2.59948 12.8436 2.95669C12.4863 3.3139 12.2857 3.79838 12.2857 4.30355C12.2857 4.50326 12.3192 4.70155 12.3847 4.89022C12.6663 5.16103 12.8995 5.47797 13.0742 5.82735C13.3959 6.07065 13.7872 6.2042 14.1904 6.2083C14.4406 6.2083 14.6882 6.15903 14.9193 6.06331C15.1504 5.96759 15.3604 5.82729 15.5373 5.65041C15.7142 5.47354 15.8545 5.26356 15.9502 5.03247C16.0459 4.80137 16.0952 4.55369 16.0952 4.30355ZM6.57142 7.35115C6.57182 7.18142 6.58583 7.01198 6.61333 6.84449C6.35326 6.92668 6.08226 6.96906 5.80952 6.9702C5.26488 6.97081 4.73311 6.80463 4.28572 6.49401L2.99049 6.9702C2.69823 7.0794 2.44652 7.27568 2.26939 7.53252C2.09226 7.78936 1.99823 8.09439 2.00003 8.40638V13.8273H4.66667V12.4445C4.66729 12.0342 4.77833 11.6316 4.98813 11.2791C5.19793 10.9265 5.49876 10.6369 5.85905 10.4407L7.40951 9.59114C6.87034 8.96927 6.57287 8.17421 6.57142 7.35115ZM17.0094 6.9702L15.7142 6.49401C15.2668 6.80463 14.7351 6.97081 14.1904 6.9702C13.9177 6.96906 13.6467 6.92668 13.3866 6.84449C13.4141 7.01198 13.4281 7.18142 13.4285 7.35115C13.4271 8.17421 13.1296 8.96927 12.5904 9.59114L14.1409 10.4407C14.5012 10.6369 14.802 10.9265 15.0118 11.2791C15.2216 11.6316 15.3326 12.0342 15.3333 12.4445V13.8273H17.9999V8.40638C18.0017 8.09439 17.9077 7.78936 17.7306 7.53252C17.5534 7.27568 17.3017 7.0794 17.0094 6.9702ZM10.3809 11.5416V14.7721L9.99997 16.372L9.61902 14.7721V11.5416C9.61902 11.4406 9.65916 11.3437 9.7306 11.2722C9.80204 11.2008 9.89894 11.1607 9.99997 11.1607C10.101 11.1607 10.1979 11.2008 10.2693 11.2722C10.3408 11.3437 10.3809 11.4406 10.3809 11.5416Z" fill="#333333"/>
<path d="M10.3809 11.5415V14.772L9.99999 16.372L9.61904 14.772V11.5415C9.61904 11.4405 9.65917 11.3436 9.73061 11.2722C9.80206 11.2007 9.89895 11.1606 9.99999 11.1606C10.101 11.1606 10.1979 11.2007 10.2694 11.2722C10.3408 11.3436 10.3809 11.4405 10.3809 11.5415ZM6.22096 11.1073C5.98106 11.2385 5.78089 11.4319 5.64148 11.6672C5.50206 11.9025 5.42853 12.1709 5.42859 12.4444V18.0177H9.61904L7.76381 10.2692L6.22096 11.1073Z" fill="#333333"/>
</svg>
