<svg width="12" height="12" viewBox="0 0 12 12" fill="#fff" xmlns="http://www.w3.org/2000/svg">
<path d="M6 2.25V1.125M3.34837 3.34837L2.553 2.553M2.25 6H1.125M6 10.875V9.75M9.447 9.447L8.65162 8.652M10.875 6H9.75M3.34837 8.65162L2.553 9.447M9.447 2.553L8.652 3.34837M8.25 6C8.25 6.59674 8.01295 7.16903 7.59099 7.59099C7.16903 8.01295 6.59674 8.25 6 8.25C5.40326 8.25 4.83097 8.01295 4.40901 7.59099C3.98705 7.16903 3.75 6.59674 3.75 6C3.75 5.40326 3.98705 4.83097 4.40901 4.40901C4.83097 3.98705 5.40326 3.75 6 3.75C6.59674 3.75 7.16903 3.98705 7.59099 4.40901C8.01295 4.83097 8.25 5.40326 8.25 6Z" stroke="white" stroke-opacity="0.92" stroke-width="0.375"/>
</svg>
